<svg width="200" height="200" viewBox="0 0 200 200" xmlns="http://www.w3.org/2000/svg">
  <!-- Hexagon shape -->
  <polygon 
    points="100 0, 186.6 50, 186.6 150, 100 200, 13.4 150, 13.4 50" 
    fill="none" 
    stroke="#e6a144" 
    stroke-width="4"
  />
  
  <!-- Stylized bird silhouette -->
  <path 
    d="M100,50 C110,50 120,55 125,65 C130,75 130,85 125,95 L140,110 L125,115 L115,100 C105,105 95,105 85,100 L75,115 L60,110 L75,95 C70,85 70,75 75,65 C80,55 90,50 100,50 Z" 
    fill="#e6a144"
  />
  
  <!-- Bird eye -->
  <circle cx="95" cy="65" r="3" fill="#1a1a1a"/>
  
  <!-- Bird wing -->
  <path 
    d="M85,80 C75,85 70,95 75,105 C85,100 95,100 105,105 C110,95 105,85 95,80 Z" 
    fill="#1a1a1a"
    opacity="0.3"
  />
</svg>